<svg width="22" height="17" viewBox="0 0 22 17" fill="none" xmlns="http://www.w3.org/2000/svg">
<path d="M19.9375 0C21.0762 0 22 0.95138 22 2.125C22 2.79349 21.6949 3.42214 21.175 3.825L11.825 11.05C11.3352 11.4263 10.6648 11.4263 10.175 11.05L0.825 3.825C0.305637 3.42214 0 2.79349 0 2.125C0 0.95138 0.923398 0 2.0625 0H19.9375ZM9.35 12.1833C10.3297 12.9404 11.6703 12.9404 12.65 12.1833L22 4.95833V14.1667C22 15.7294 20.7668 17 19.25 17H2.75C1.23105 17 0 15.7294 0 14.1667V4.95833L9.35 12.1833Z" fill="#6B7280"/>
</svg>
