<svg width="23" height="21" viewBox="0 0 23 21" fill="none" xmlns="http://www.w3.org/2000/svg">
<path d="M22.6041 10.635C22.6041 11.3295 22.0254 11.8735 21.3695 11.8735H20.1349L20.1619 18.0504C20.1619 18.1585 20.1542 18.2588 20.1426 18.363V18.988C20.1426 19.8406 19.452 20.5313 18.5993 20.5313H17.982C17.9396 20.5313 17.8971 20.4965 17.8547 20.5274C17.8007 20.4965 17.7466 20.5313 17.6926 20.5313H15.5128C14.6601 20.5313 13.9695 19.8406 13.9695 18.988V15.5928C13.9695 14.9099 13.4178 14.3582 12.7349 14.3582H10.2656C9.58273 14.3582 9.03101 14.9099 9.03101 15.5928V18.988C9.03101 19.8406 8.34039 20.5313 7.48773 20.5313H5.33101C5.27313 20.5313 5.21526 20.5274 5.15739 20.5235C5.11109 20.5274 5.06479 20.5313 5.01849 20.5313H4.40118C3.54891 20.5313 2.85791 19.8406 2.85791 18.988V14.6668C2.85791 14.6321 2.85907 14.5935 2.86138 14.5588V11.8735H1.62522C0.929589 11.8735 0.388672 11.3295 0.388672 10.635C0.388672 10.2878 0.504572 9.97912 0.774876 9.70904L10.6669 1.08662C10.9369 0.816003 11.2456 0.777344 11.5157 0.777344C11.7857 0.777344 12.0944 0.854662 12.3298 1.04796L22.1797 9.70904C22.4884 9.97912 22.6465 10.2878 22.6041 10.635Z" fill="#FFFFFFE6"/>
</svg>
