<svg width="17" height="23" viewBox="0 0 17 23" fill="none" xmlns="http://www.w3.org/2000/svg">
<path d="M4.5714 3.16645C5.13997 1.54753 6.68511 0.388672 8.49935 0.388672C10.3136 0.388672 11.8587 1.54753 12.4273 3.16645H14.0549C15.587 3.16645 16.8327 4.41211 16.8327 5.94423V19.8331C16.8327 21.3652 15.587 22.6109 14.0549 22.6109H2.94379C1.41168 22.6109 0.166016 21.3652 0.166016 19.8331V5.94423C0.166016 4.41211 1.41168 3.16645 2.94379 3.16645H4.5714ZM9.88824 4.55534C9.88824 3.78711 9.26758 3.16645 8.49935 3.16645C7.73112 3.16645 7.11046 3.78711 7.11046 4.55534C7.11046 5.32357 7.73112 5.94423 8.49935 5.94423C9.26758 5.94423 9.88824 5.32357 9.88824 4.55534ZM7.11046 16.3609C7.11046 16.7428 7.42296 17.0553 7.8049 17.0553H13.3605C13.7424 17.0553 14.0549 16.7428 14.0549 16.3609C14.0549 15.9789 13.7424 15.6664 13.3605 15.6664H7.8049C7.42296 15.6664 7.11046 15.9789 7.11046 16.3609ZM4.33268 17.4026C4.90994 17.4026 5.37435 16.9382 5.37435 16.3609C5.37435 15.7836 4.90994 15.3192 4.33268 15.3192C3.75543 15.3192 3.29102 15.7836 3.29102 16.3609C3.29102 16.9382 3.75543 17.4026 4.33268 17.4026ZM7.11046 12.1942C7.11046 12.5762 7.42296 12.8887 7.8049 12.8887H13.3605C13.7424 12.8887 14.0549 12.5762 14.0549 12.1942C14.0549 11.8123 13.7424 11.4998 13.3605 11.4998H7.8049C7.42296 11.4998 7.11046 11.8123 7.11046 12.1942ZM4.33268 13.2359C4.90994 13.2359 5.37435 12.7715 5.37435 12.1942C5.37435 11.617 4.90994 11.1526 4.33268 11.1526C3.75543 11.1526 3.29102 11.617 3.29102 12.1942C3.29102 12.7715 3.75543 13.2359 4.33268 13.2359Z" fill="#FFFFFFE6"/>
</svg>
