<svg width="22" height="23" viewBox="0 0 22 23" fill="none" xmlns="http://www.w3.org/2000/svg">
<path d="M21.274 7.61957C21.4172 7.99284 21.2957 8.41385 21.0006 8.68728L19.1212 10.3974C19.169 10.7576 19.195 11.1265 19.195 11.4998C19.195 11.873 19.169 12.242 19.1212 12.6022L21.0006 14.3123C21.2957 14.5857 21.4172 15.0067 21.274 15.38C21.083 15.8965 20.853 16.3956 20.5926 16.8687L20.3886 17.2203C20.1021 17.6977 19.781 18.1491 19.4294 18.5788C19.169 18.8869 18.748 18.9954 18.366 18.8739L15.9485 18.1013C15.3669 18.5484 14.6855 18.9217 14.0388 19.2081L13.4962 21.6864C13.4094 22.077 13.1056 22.3548 12.7063 22.459C12.1073 22.5588 11.491 22.6109 10.8226 22.6109C10.2323 22.6109 9.61602 22.5588 9.01706 22.459C8.61776 22.3548 8.31394 22.077 8.22713 21.6864L7.6846 19.2081C6.99883 18.9217 6.35647 18.5484 5.77487 18.1013L3.35907 18.8739C2.97539 18.9954 2.55222 18.8869 2.29527 18.5788C1.94328 18.1491 1.6221 17.6977 1.33564 17.2203L1.13251 16.8687C0.869057 16.3956 0.639891 15.8965 0.447616 15.38C0.306991 15.0067 0.425481 14.5857 0.723224 14.3123L2.60083 12.6022C2.55309 12.242 2.52835 11.873 2.52835 11.4998C2.52835 11.1265 2.55309 10.7576 2.60083 10.3974L0.723224 8.68728C0.425481 8.41385 0.306991 7.99718 0.447616 7.61957C0.639891 7.10308 0.869491 6.60395 1.13251 6.13086L1.3352 5.7793C1.6221 5.30187 1.94328 4.85048 2.29527 4.42296C2.55222 4.11263 2.97539 4.00499 3.35907 4.12739L5.77487 4.89822C6.35647 4.44944 6.99883 4.07617 7.6846 3.79275L8.22713 1.31445C8.31394 0.920356 8.61776 0.607422 9.01706 0.541016C9.61602 0.440799 10.2323 0.388672 10.8617 0.388672C11.491 0.388672 12.1073 0.440799 12.7063 0.541016C13.1056 0.607422 13.4094 0.920356 13.4962 1.31445L14.0388 3.79275C14.6855 4.07617 15.3669 4.44944 15.9485 4.89822L18.366 4.12739C18.748 4.00499 19.169 4.11263 19.4294 4.42296C19.781 4.85048 20.1021 5.30187 20.3886 5.7793L20.5926 6.13086C20.853 6.60395 21.083 7.10308 21.274 7.61957ZM10.8617 14.972C12.7801 14.972 14.3339 13.4182 14.3339 11.4607C14.3339 9.58138 12.7801 7.9885 10.8617 7.9885C8.94328 7.9885 7.38946 9.58138 7.38946 11.4607C7.38946 13.4182 8.94328 14.972 10.8617 14.972Z" fill="#FFFFFFE6"/>
</svg>
