<svg width="143" height="23" viewBox="0 0 143 23" fill="none" xmlns="http://www.w3.org/2000/svg">
<path d="M1.7116 12.8334L140.751 12.9074L140.752 9.90745L1.71321 9.83344L1.7116 12.8334ZM141.812 12.4684C142.398 11.8834 142.398 10.9334 141.813 10.3474L132.272 0.796349C131.686 0.210243 130.737 0.209748 130.151 0.795243C129.564 1.38065 129.564 2.33044 130.149 2.91654L138.63 11.4064L130.14 19.8874C129.554 20.4724 129.554 21.4224 130.139 22.0084C130.725 22.5944 131.674 22.5954 132.261 22.0094L141.812 12.4684ZM1.71321 9.83344C0.884776 9.83244 0.212847 10.5034 0.212403 11.3324C0.211959 12.1604 0.883177 12.8324 1.7116 12.8334L1.71321 9.83344Z" fill="white"/>
</svg>
