<svg width="364" height="24" viewBox="0 0 364 24" fill="none" xmlns="http://www.w3.org/2000/svg">
<path d="M2 10.5C1.17157 10.5 0.5 11.1716 0.5 12C0.5 12.8284 1.17157 13.5 2 13.5L2 10.5ZM363.061 13.0607C363.646 12.4749 363.646 11.5251 363.061 10.9393L353.515 1.3934C352.929 0.807615 351.979 0.807615 351.393 1.3934C350.808 1.97919 350.808 2.92894 351.393 3.51472L359.879 12L351.393 20.4853C350.808 21.0711 350.808 22.0208 351.393 22.6066C351.979 23.1924 352.929 23.1924 353.515 22.6066L363.061 13.0607ZM2 13.5L362 13.5L362 10.5L2 10.5L2 13.5Z" fill="white"/>
</svg>
