<svg width="196" height="168" viewBox="0 0 196 168" fill="none" xmlns="http://www.w3.org/2000/svg">
<path d="M194.574 162.386C195.34 162.069 195.703 161.191 195.386 160.426L190.217 147.954C189.9 147.189 189.022 146.826 188.257 147.143C187.492 147.46 187.128 148.338 187.446 149.103L192.04 160.189L180.954 164.783C180.189 165.1 179.826 165.978 180.143 166.743C180.46 167.508 181.338 167.872 182.103 167.554L194.574 162.386ZM7.42625 85.3859L193.426 162.386L194.574 159.614L8.57375 82.6141L7.42625 85.3859Z" fill="white"/>
<path d="M0 84C0 88.4183 3.58172 92 8 92C12.4183 92 16 88.4183 16 84C16 79.5817 12.4183 76 8 76C3.58172 76 0 79.5817 0 84ZM195.061 85.0607C195.646 84.4749 195.646 83.5251 195.061 82.9393L185.515 73.3934C184.929 72.8076 183.979 72.8076 183.393 73.3934C182.808 73.9792 182.808 74.9289 183.393 75.5147L191.879 84L183.393 92.4853C182.808 93.0711 182.808 94.0208 183.393 94.6066C183.979 95.1924 184.929 95.1924 185.515 94.6066L195.061 85.0607ZM8 85.5H194V82.5H8V85.5Z" fill="white"/>
<path d="M195.386 7.57431C195.703 6.809 195.34 5.93147 194.574 5.6143L182.103 0.445565C181.338 0.128391 180.46 0.491664 180.143 1.25697C179.826 2.02227 180.189 2.89979 180.954 3.21697L192.04 7.8114L187.446 18.897C187.128 19.6623 187.492 20.5399 188.257 20.857C189.022 21.1742 189.9 20.8109 190.217 20.0456L195.386 7.57431ZM8.57375 85.3859L194.574 8.38593L193.426 5.61407L7.42625 82.6141L8.57375 85.3859Z" fill="white"/>
</svg>
